
<global>
</global>

<group>
ampeg_attack=0.002
ampeg_release=0.3
group_label=Group
loop_mode=loop_continuous

<region>
hikey=B2
hivel=127
lokey=A#2
loop_end=137479
loop_mode=loop_continuous
loop_start=24093
loop_xfade=10000
lovel=0
offset=2385
pitch_keycenter=A#2
sample=Lespaul_Rhythm_WholeTrill_MP_A#2.opus
volume=+0.71
</region>

<region>
hikey=B3
hivel=127
lokey=A#3
loop_end=116433
loop_mode=loop_continuous
loop_start=33694
loop_xfade=10000
lovel=0
offset=2311
pitch_keycenter=A#3
sample=Lespaul_Rhythm_WholeTrill_MP_A#3.opus
volume=+3.02
</region>

<region>
hikey=B4
hivel=127
lokey=A#4
loop_end=140025
loop_mode=loop_continuous
loop_start=39490
loop_xfade=10000
lovel=0
offset=2361
pitch_keycenter=A#4
sample=Lespaul_Rhythm_WholeTrill_MP_A#4.opus
volume=+0.05
</region>

<region>
hikey=B5
hivel=127
lokey=A#5
loop_end=131644
loop_mode=loop_continuous
loop_start=31729
loop_xfade=10000
lovel=0
offset=1908
pitch_keycenter=A#5
sample=Lespaul_Rhythm_WholeTrill_MP_A#5.opus
volume=-1.74
</region>

<region>
hikey=C#3
hivel=127
lokey=C3
loop_end=132199
loop_mode=loop_continuous
loop_start=25772
loop_xfade=10000
lovel=0
offset=2556
pitch_keycenter=C3
sample=Lespaul_Rhythm_WholeTrill_MP_C3.opus
volume=-1.52
</region>

<region>
hikey=C#4
hivel=127
lokey=C4
loop_end=134201
loop_mode=loop_continuous
loop_start=31601
loop_xfade=10000
lovel=0
offset=1953
sample=Lespaul_Rhythm_WholeTrill_MP_C4.opus
volume=+0.87
</region>

<region>
hikey=C#5
hivel=127
lokey=C5
loop_end=136869
loop_mode=loop_continuous
loop_start=40996
loop_xfade=10000
lovel=0
offset=2421
pitch_keycenter=C5
sample=Lespaul_Rhythm_WholeTrill_MP_C5.opus
volume=-1.29
</region>

<region>
hikey=C#6
hivel=127
lokey=C6
loop_end=133157
loop_mode=loop_continuous
loop_start=35199
loop_xfade=10000
lovel=0
offset=3109
pitch_keycenter=C6
sample=Lespaul_Rhythm_WholeTrill_MP_C6.opus
volume=-5.52
</region>

<region>
hikey=D#2
hivel=127
lokey=C2
loop_end=135525
loop_mode=loop_continuous
loop_start=35775
loop_xfade=10000
lovel=0
offset=1491
pitch_keycenter=D2
sample=Lespaul_Rhythm_WholeTrill_MP_D2.opus
volume=-1.35
</region>

<region>
hikey=D#3
hivel=127
lokey=D3
loop_end=135367
loop_mode=loop_continuous
loop_start=25643
loop_xfade=10000
lovel=0
offset=2342
pitch_keycenter=D3
sample=Lespaul_Rhythm_WholeTrill_MP_D3.opus
volume=+2.35
</region>

<region>
hikey=D#4
hivel=127
lokey=D4
loop_end=133950
loop_mode=loop_continuous
loop_start=49095
loop_xfade=10000
lovel=0
offset=3788
pitch_keycenter=D4
sample=Lespaul_Rhythm_WholeTrill_MP_D4.opus
volume=+2.07
</region>

<region>
hikey=D#5
hivel=127
lokey=D5
loop_end=140645
loop_mode=loop_continuous
loop_start=76369
loop_xfade=10000
lovel=0
offset=1972
pitch_keycenter=D5
sample=Lespaul_Rhythm_WholeTrill_MP_D5.opus
volume=-3.03
</region>

<region>
hikey=F2
hivel=127
lokey=E2
loop_end=131862
loop_mode=loop_continuous
loop_start=29188
loop_xfade=10000
lovel=0
offset=2073
pitch_keycenter=E2
sample=Lespaul_Rhythm_WholeTrill_MP_E2.opus
volume=+2.02
</region>

<region>
hikey=F3
hivel=127
lokey=E3
loop_end=121726
loop_mode=loop_continuous
loop_start=31784
loop_xfade=10000
lovel=0
offset=2623
pitch_keycenter=E3
sample=Lespaul_Rhythm_WholeTrill_MP_E3.opus
volume=+0.84
</region>

<region>
hikey=F4
hivel=127
lokey=E4
loop_end=128244
loop_mode=loop_continuous
loop_start=39555
loop_xfade=10000
lovel=0
offset=2307
pitch_keycenter=E4
sample=Lespaul_Rhythm_WholeTrill_MP_E4.opus
volume=+1.81
</region>

<region>
hikey=F5
hivel=127
lokey=E5
loop_end=132867
loop_mode=loop_continuous
loop_start=43047
loop_xfade=10000
lovel=0
offset=4527
pitch_keycenter=E5
sample=Lespaul_Rhythm_WholeTrill_MP_E5.opus
volume=+3.43
</region>

<region>
hikey=G2
hivel=127
lokey=F#2
loop_end=132340
loop_mode=loop_continuous
loop_start=33705
loop_xfade=10000
lovel=0
offset=2391
pitch_keycenter=F#2
sample=Lespaul_Rhythm_WholeTrill_MP_F#2.opus
volume=-1.60
</region>

<region>
hikey=G3
hivel=127
lokey=F#3
loop_end=134660
loop_mode=loop_continuous
loop_start=29904
loop_xfade=10000
lovel=0
offset=2429
pitch_keycenter=F#3
sample=Lespaul_Rhythm_WholeTrill_MP_F#3.opus
volume=+4.92
</region>

<region>
hikey=G4
hivel=127
lokey=F#4
loop_end=133042
loop_mode=loop_continuous
loop_start=34855
loop_xfade=10000
lovel=0
offset=4074
pitch_keycenter=F#4
sample=Lespaul_Rhythm_WholeTrill_MP_F#4.opus
volume=-0.75
</region>

<region>
hikey=G5
hivel=127
lokey=F#5
loop_end=113548
loop_mode=loop_continuous
loop_start=38002
loop_xfade=10000
lovel=0
offset=1812
pitch_keycenter=F#5
sample=Lespaul_Rhythm_WholeTrill_MP_F#5.opus
volume=-2.72
</region>

<region>
hikey=A2
hivel=127
lokey=G#2
loop_end=134088
loop_mode=loop_continuous
loop_start=24109
loop_xfade=10000
lovel=0
offset=1489
pitch_keycenter=G#2
sample=Lespaul_Rhythm_WholeTrill_MP_G#2.opus
volume=-3.69
</region>

<region>
hikey=A3
hivel=127
lokey=G#3
loop_end=127769
loop_mode=loop_continuous
loop_start=30723
loop_xfade=10000
lovel=0
offset=2169
pitch_keycenter=G#3
sample=Lespaul_Rhythm_WholeTrill_MP_G#3.opus
volume=+0.03
</region>

<region>
hikey=A4
hivel=127
lokey=G#4
loop_end=140186
loop_mode=loop_continuous
loop_start=32822
loop_xfade=10000
lovel=0
offset=1741
pitch_keycenter=G#4
sample=Lespaul_Rhythm_WholeTrill_MP_G#4.opus
volume=+0.15
</region>

<region>
hikey=A5
hivel=127
lokey=G#5
loop_end=133322
loop_mode=loop_continuous
loop_start=93056
loop_xfade=10000
lovel=0
offset=4422
pitch_keycenter=G#5
sample=Lespaul_Rhythm_WholeTrill_MP_G#5.opus
volume=-1.40
</region>
</group>